<svg width="210" height="107" xmlns="http://www.w3.org/2000/svg">
 <title>DVD logo</title>

 <g>
  <title>Layer 1</title>
  <path fill="#ff007f" id="svg_1" d="m118.895,20.346c0,0 -13.743,16.922 -13.04,18.001c0.975,-1.079 -4.934,-18.186 -4.934,-18.186s-1.233,-3.597 -5.102,-15.387l-14.009,0l-33.998,0l-25.637,0l-2.56,11.068l19.299,0l4.579,0c12.415,0 19.995,5.132 17.878,14.225c-2.287,9.901 -13.123,14.128 -24.665,14.128l-4.316,0l5.552,-24.208l-19.295,0l-8.192,35.368l27.398,0c20.612,0 40.166,-11.067 43.692,-25.288c0.617,-2.614 0.53,-9.185 -1.054,-13.053c0,-0.093 -0.091,-0.271 -0.178,-0.537c-0.087,-0.093 -0.178,-0.722 0.178,-0.814c0.172,-0.092 0.525,0.271 0.525,0.358c0,0 0.179,0.456 0.351,0.813l17.44,50.315l44.404,-51.216l18.761,-0.092l4.579,0c12.424,0 20.09,5.132 17.969,14.225c-2.29,9.901 -13.205,14.128 -24.75,14.128l-4.405,0l5.635,-24.207l-19.287,0l-8.198,35.368l27.398,0c20.611,0 40.343,-11.067 43.604,-25.288c3.347,-14.225 -11.101,-25.293 -31.89,-25.293l-18.143,0l-22.727,0c-10.834,13.049 -12.862,15.572 -12.862,15.572l0,0z"/>
  <path fill="#ff007f" id="svg_2" d="m99.424,67.329c-52.143,0 -94.424,6.12 -94.424,13.683c0,7.558 42.281,13.678 94.424,13.678c52.239,0 94.524,-6.12 94.524,-13.678c0.001,-7.563 -42.284,-13.683 -94.524,-13.683zm-3.346,18.544c-11.98,0 -21.58,-2.072 -21.58,-4.595c0,-2.523 9.599,-4.59 21.58,-4.59c11.888,0 21.498,2.066 21.498,4.59c0,2.523 -9.61,4.595 -21.498,4.595z"/>
  <polygon fill="#ff007f" id="svg_3" points="182.843,94.635 182.843,93.653 177.098,93.653 176.859,94.635 179.251,94.635 178.286,102.226 179.49,102.226 180.445,94.635 182.843,94.635"/>
  <polygon fill="#ff007f" id="svg_4" points="191.453,102.226 191.453,93.653 190.504,93.653 187.384,99.534 185.968,93.653 185.013,93.653 182.36,102.226 183.337,102.226 185.475,95.617 186.917,102.226 190.276,95.617 190.504,102.226 191.453,102.226"/>
 </g>
</svg>